<svg width="42" height="40" viewBox="0 0 42 40" fill="black" xmlns="http://www.w3.org/2000/svg">
<path d="M15.1842 19.5976C20.592 19.5976 24.9758 15.2105 24.9758 9.7988C24.9758 4.38707 20.592 0 15.1842 0C9.77641 0 5.39252 4.38707 5.39252 9.7988C5.39252 15.2105 9.77641 19.5976 15.1842 19.5976Z" fill="black"/>
<path d="M32.7808 13.3491C35.4978 13.3491 37.7003 11.145 37.7003 8.42604C37.7003 5.70711 35.4978 3.50298 32.7808 3.50298C30.0639 3.50298 27.8613 5.70711 27.8613 8.42604C27.8613 11.145 30.0639 13.3491 32.7808 13.3491Z" fill="black"/>
<path d="M4.91949 27.8816C7.63644 27.8816 9.83897 25.6775 9.83897 22.9585C9.83897 20.2396 7.63644 18.0354 4.91949 18.0354C2.20253 18.0354 0 20.2396 0 22.9585C0 25.6775 2.20253 27.8816 4.91949 27.8816Z" fill="black"/>
<path d="M31.5509 36.4497C37.1939 36.4497 41.7683 31.8718 41.7683 26.2247C41.7683 20.5778 37.1939 15.9999 31.5509 15.9999C25.908 15.9999 21.3336 20.5778 21.3336 26.2247C21.3336 31.8718 25.908 36.4497 31.5509 36.4497Z" fill="black"/>
<path d="M14.0963 40C17.4924 40 20.2456 37.2448 20.2456 33.8462C20.2456 30.4474 17.4924 27.6923 14.0963 27.6923C10.7001 27.6923 7.94691 30.4474 7.94691 33.8462C7.94691 37.2448 10.7001 40 14.0963 40Z" fill="black"/>
</svg>
